<?xml version="1.0" encoding="UTF-8"?>
<svg id="Livello_1" data-name="Livello 1" xmlns="http://www.w3.org/2000/svg" xmlns:xlink="http://www.w3.org/1999/xlink" viewBox="0 0 1080 1080">
  <defs>
    <style>
      .cls-1 {
        fill: url(#Sfumatura_senza_nome_21-2);
      }

      .cls-1, .cls-2, .cls-3, .cls-4, .cls-5 {
        isolation: isolate;
      }

      .cls-2 {
        fill: url(#Sfumatura_senza_nome_21-3);
      }

      .cls-3 {
        fill: url(#Sfumatura_senza_nome_21-5);
      }

      .cls-4 {
        fill: url(#Sfumatura_senza_nome_21-4);
      }

      .cls-5 {
        fill: url(#Sfumatura_senza_nome_21);
      }
    </style>
    <linearGradient id="Sfumatura_senza_nome_21" data-name="Sfumatura senza nome 21" x1="234.18" y1="790.37" x2="243.98" y2="334.73" gradientUnits="userSpaceOnUse">
      <stop offset="0" stop-color="#5146ed"/>
      <stop offset="1" stop-color="#00bb7c"/>
    </linearGradient>
    <linearGradient id="Sfumatura_senza_nome_21-2" data-name="Sfumatura senza nome 21" x1="384.33" y1="793.59" x2="394.13" y2="337.96" xlink:href="#Sfumatura_senza_nome_21"/>
    <linearGradient id="Sfumatura_senza_nome_21-3" data-name="Sfumatura senza nome 21" x1="534.48" y1="796.82" x2="544.28" y2="341.19" xlink:href="#Sfumatura_senza_nome_21"/>
    <linearGradient id="Sfumatura_senza_nome_21-4" data-name="Sfumatura senza nome 21" x1="684.63" y1="800.05" x2="694.42" y2="344.42" xlink:href="#Sfumatura_senza_nome_21"/>
    <linearGradient id="Sfumatura_senza_nome_21-5" data-name="Sfumatura senza nome 21" x1="834.78" y1="803.28" x2="844.57" y2="347.65" xlink:href="#Sfumatura_senza_nome_21"/>
  </defs>
  <path class="cls-5" d="M239.56,464.89h0c25.64,0,46.42,20.78,46.42,46.42v57.38c0,25.64-20.78,46.42-46.42,46.42h0c-25.64,0-46.42-20.78-46.42-46.42v-57.38c0-25.64,20.78-46.42,46.42-46.42Z"/>
  <path class="cls-1" d="M389.78,343.36h0c25.64,0,46.42,20.78,46.42,46.42v300.44c0,25.64-20.78,46.42-46.42,46.42h0c-25.64,0-46.42-20.78-46.42-46.42v-300.44c0-25.64,20.78-46.42,46.42-46.42Z"/>
  <path class="cls-2" d="M540,221.83h0c25.64,0,46.42,20.78,46.42,46.42v543.5c0,25.64-20.78,46.42-46.42,46.42h0c-25.64,0-46.42-20.78-46.42-46.42V268.25c0-25.64,20.78-46.42,46.42-46.42Z"/>
  <path class="cls-4" d="M690.22,418.47h0c25.64,0,46.42,20.78,46.42,46.42v150.22c0,25.64-20.78,46.42-46.42,46.42h0c-25.64,0-46.42-20.78-46.42-46.42v-150.22c0-25.64,20.78-46.42,46.42-46.42Z"/>
  <path class="cls-3" d="M840.44,493.58h0c25.64,0,46.42,20.78,46.42,46.42h0c0,25.64-20.78,46.42-46.42,46.42h0c-25.64,0-46.42-20.78-46.42-46.42h0c0-25.64,20.78-46.42,46.42-46.42Z"/>
</svg>